<svg width="99" height="99" viewBox="0 0 99 99" fill="none" xmlns="http://www.w3.org/2000/svg">
<g clip-path="url(#clip0_24_251)">
<path d="M1.87541 49.7799L9.76542 52.8926C10.808 53.3037 11.9448 53.0866 12.7578 52.4052L19.006 56.3456L20.0776 57.0989C18.7183 59.2503 19.0666 62.1901 21.1334 63.9425C22.269 64.9054 23.712 65.3163 25.1245 65.1624C25.2075 66.6472 25.8827 67.9696 26.9815 68.901C28.0614 69.8168 29.4712 70.2857 30.9725 70.1219C31.056 71.6061 31.7308 72.9281 32.8297 73.8597C33.9196 74.784 35.3321 75.243 36.8231 75.0804C36.901 76.4786 37.5281 77.8435 38.6778 78.8184C40.8987 80.7019 44.2398 80.4287 46.1229 78.208L47.3766 76.7363L49.4895 78.2956C53.1424 80.9919 58.3055 78.783 58.7817 74.3011C62.548 75.6697 66.547 73.0302 66.605 68.9766C70.1551 69.6441 73.3053 67.0656 73.5031 63.6455C78.108 64.8755 82.2731 60.2221 80.2397 55.672L85.8858 52.0455C86.6943 53.0032 88.0377 53.365 89.2356 52.8924L97.1256 49.7799C98.6442 49.1809 99.3927 47.4579 98.7935 45.9388L95.1874 36.798C94.8935 36.0528 94.051 35.6873 93.3062 35.9812C92.561 36.2752 92.1953 37.1174 92.4892 37.8624L96.0952 47.0031C96.1076 47.0342 96.0923 47.0696 96.0611 47.082L88.1711 50.1945C88.1398 50.2067 88.1048 50.1916 88.0924 50.1605C87.8161 49.4601 78.9601 27.0111 78.177 25.0261C78.1741 25.0191 78.1677 25.0029 78.1778 24.9799C78.1878 24.9569 78.2043 24.9505 78.211 24.9476L86.1012 21.8349C86.108 21.832 86.124 21.8256 86.1476 21.8357C86.1705 21.8457 86.1768 21.862 86.1797 21.8689L90.0026 31.5589C90.2967 32.3041 91.139 32.6696 91.8838 32.3757C92.629 32.0818 92.9947 31.2395 92.7008 30.4945L88.8779 20.8047C88.279 19.2861 86.5558 18.5378 85.0372 19.137L77.1468 22.2497C75.737 22.8058 74.9928 24.3186 75.371 25.7528L71.1412 27.3139C69.825 27.7998 68.3961 27.9408 67.0093 27.721L62.7338 27.0432C61.943 26.9181 61.1997 27.4578 61.0746 28.2484C60.9493 29.0395 61.4888 29.7825 62.2798 29.9078L66.5553 30.5856C68.4315 30.8828 70.3643 30.6923 72.1457 30.0347L76.4137 28.4592C76.877 29.6337 84.1878 48.1648 84.6675 49.3808L78.4444 53.3778L78.3388 53.2998C78.3384 53.2994 78.3379 53.2991 78.3375 53.2989C77.6708 52.8068 66.8502 44.8214 66.3425 44.4465C66.0315 44.217 65.6452 44.1139 65.2009 44.1893C59.1932 45.2109 53.8107 43.0746 49.8509 38.94C48.6188 37.6536 46.6086 37.5846 45.2739 38.783C41.4324 42.2331 36.0642 45.5974 32.3082 42.0278C31.935 41.6734 31.9323 41.0186 32.499 40.6528C37.2835 37.5751 42.2399 33.2537 46.2285 29.2187C47.2212 28.2142 48.6489 27.7472 50.0502 27.9694L55.555 28.842C56.3475 28.9675 57.0889 28.4277 57.2142 27.6368C57.3395 26.8458 56.8 26.1027 56.009 25.9774L50.5042 25.1048C48.1831 24.737 45.8139 25.5128 44.1659 27.1799C43.7046 27.6465 43.1589 28.1883 42.5436 28.7825C40.6866 28.1241 38.7511 27.7308 36.7823 27.6202C31.0194 27.2965 30.5196 27.2354 29.211 27.3195C28.1838 27.3851 27.1389 27.2105 26.1886 26.8129L23.6327 25.7435C24.0017 24.3176 23.2586 22.8031 21.8544 22.2493L13.9644 19.137C12.4452 18.5376 10.7224 19.2859 10.1233 20.8047L0.207684 45.9388C-0.392696 47.461 0.352703 49.1794 1.87541 49.7799ZM26.3686 61.4536C25.5188 62.456 24.0119 62.5803 23.0092 61.7303C21.9998 60.8745 21.8854 59.3701 22.7305 58.3734L26.3175 54.1632C27.1472 53.1842 28.6581 53.0229 29.6769 53.8865C30.6816 54.7382 30.8058 56.241 29.9534 57.2459C29.9531 57.2463 29.9529 57.2467 29.9525 57.2471L26.3686 61.4536ZM32.2165 66.4125C31.3648 67.417 29.8626 67.5411 28.8573 66.689C27.848 65.8332 27.7335 64.3288 28.5787 63.3321L32.1657 59.1219C33.0565 58.0708 34.7076 57.9789 35.7016 59.0111C35.7082 59.0178 35.7138 59.0254 35.7204 59.0324C36.5391 59.903 36.5924 61.272 35.8016 62.2048L32.2165 66.4125ZM38.0647 71.371C37.2098 72.3793 35.7061 72.4959 34.7054 71.6475C33.6961 70.7919 33.5814 69.2875 34.4266 68.2908L38.0138 64.0804C38.8659 63.0757 40.3784 62.9597 41.3732 63.8039C42.3756 64.6541 42.4995 66.1609 41.6497 67.1633C41.6493 67.1637 41.6492 67.1641 41.6488 67.1644L38.0647 71.371ZM47.5174 72.0965C47.5114 72.1038 47.5062 72.1119 47.5 72.1191C46.9215 72.7982 45.3272 74.6693 43.9128 76.3295C43.063 77.332 41.5561 77.456 40.5536 76.6062C39.551 75.7562 39.4271 74.2493 40.2748 73.2495L43.862 69.0391C44.7166 68.0309 46.2217 67.9147 47.2212 68.7626C48.2046 69.5959 48.3552 71.0833 47.5174 72.0965ZM22.5905 28.452L25.0688 29.489C26.4289 30.0581 27.9255 30.3089 29.3964 30.2143C30.5055 30.143 30.8758 30.1936 36.6191 30.5163C37.7984 30.5827 38.9644 30.7652 40.1031 31.0614C37.2655 33.6238 34.079 36.1922 30.8872 38.2418C28.8409 39.5555 28.5377 42.4466 30.3102 44.1311C32.7328 46.4331 38.1505 49.0794 47.2117 40.9415C47.3741 40.7957 47.6131 40.7976 47.7556 40.9467C52.1449 45.5282 58.3664 48.0873 65.085 47.1431C65.8463 47.6781 64.3723 46.598 76.6147 55.6331C77.9249 56.5999 78.2915 58.5014 77.2657 59.8137C76.2914 61.0603 74.5308 61.3018 73.2587 60.3627C71.5401 59.0942 72.809 60.0597 66.7675 55.4045C66.1325 54.9155 65.2223 55.0337 64.7333 55.6681C64.2447 56.3025 64.3626 57.213 64.9969 57.702L70.0093 61.5642C70.8729 62.7019 70.77 64.346 69.7477 65.3658C68.7426 66.3688 67.0882 66.4635 65.8993 65.5864C64.7498 64.7382 65.7048 65.465 60.4326 61.406C59.798 60.9172 58.8873 61.0359 58.3989 61.6705C57.9103 62.3051 58.0286 63.2157 58.6632 63.7043L63.1078 67.1262C63.9471 68.2119 63.9059 69.7734 62.9894 70.8126C62.0033 71.9306 60.2561 72.0862 59.0112 71.1674C57.0109 69.6913 58.0149 70.4535 54.1628 67.4721C53.5293 66.9819 52.6186 67.0979 52.1282 67.7314C51.6381 68.3648 51.7541 69.2755 52.3875 69.7657L55.4687 72.1504C56.1696 73.2659 56.0324 74.7269 55.1106 75.691C54.1046 76.7435 52.4283 76.8601 51.2113 75.9619L49.2619 74.5233L49.7097 73.9976C50.6026 72.9449 51.0636 71.5815 50.9457 70.147C50.8258 68.6939 50.1353 67.4313 49.0968 66.5503C48.0165 65.6344 46.6055 65.1651 45.1047 65.3279C45.0258 63.9268 44.3833 62.5542 43.2486 61.5916C42.1724 60.6792 40.8061 60.2407 39.3979 60.3557C39.3509 60.3596 39.3039 60.364 39.2573 60.3692C39.2546 60.3228 39.253 60.2764 39.2492 60.2298C39.1569 59.1085 38.72 58.07 38.0016 57.2322C37.9972 57.227 37.9931 57.2217 37.9887 57.2165C36.8459 55.8945 35.1448 55.2267 33.4109 55.4131C33.3293 53.9569 32.6692 52.6215 31.5523 51.6745C29.3297 49.7902 25.989 50.0651 24.107 52.2849L21.9215 54.8502L20.644 53.9522C20.6243 53.9383 20.6042 53.9248 20.5837 53.912L14.1475 49.8528C19.0134 37.519 17.1908 42.139 22.5905 28.452ZM2.90562 47.0035L12.8211 21.8693C12.8305 21.8454 12.8534 21.8309 12.8775 21.8309C12.8849 21.8309 12.8924 21.8322 12.8998 21.8351L20.7898 24.9478C20.8209 24.96 20.8362 24.9954 20.824 25.0263C20.347 26.2356 11.2204 49.3696 10.9084 50.1607C10.8956 50.1922 10.8616 50.2071 10.8299 50.1947L2.93985 47.082C2.90852 47.0696 2.89305 47.0346 2.90562 47.0035Z" fill="#CC2C2C"/>
</g>
<defs>
<clipPath id="clip0_24_251">
<rect width="99" height="99" fill="white"/>
</clipPath>
</defs>
</svg>
