<svg width="106" height="106" viewBox="0 0 106 106" fill="none" xmlns="http://www.w3.org/2000/svg">
<path d="M52.793 33.2513C55.9233 33.2513 58.9232 31.6738 61.2398 28.8105C63.3557 26.1957 64.5689 22.8977 64.5689 19.7591C64.5689 13.4364 59.507 8.66846 52.793 8.66846C46.0789 8.66846 41.017 13.4302 41.017 19.7591C41.017 22.8977 42.2302 26.1957 44.3461 28.8105C46.6628 31.6758 49.6627 33.2513 52.793 33.2513ZM52.793 12.0845C57.6375 12.0845 61.1529 15.3121 61.1529 19.7591C61.1529 25.349 56.5796 29.8353 52.793 29.8353C48.1617 29.8353 44.433 24.3221 44.433 19.7591C44.433 15.3204 47.9484 12.0845 52.793 12.0845Z" fill="#CC2C2C"/>
<path d="M38.8577 49.6441L37.659 66.7428C37.6432 66.9665 37.6717 67.1912 37.7427 67.404C37.8138 67.6167 37.926 67.8134 38.0731 67.9828C38.2202 68.1522 38.3992 68.2909 38.5999 68.3911C38.8006 68.4913 39.019 68.551 39.2428 68.5667H39.3629C39.7949 68.5663 40.2108 68.4022 40.5269 68.1077C40.843 67.8131 41.0359 67.4098 41.0667 66.9788L42.2654 49.8946C42.2812 49.6708 42.2527 49.4462 42.1817 49.2334C42.1106 49.0206 41.9984 48.824 41.8513 48.6546C41.7042 48.4852 41.5252 48.3465 41.3245 48.2463C41.1239 48.1461 40.9054 48.0864 40.6816 48.0706C40.4579 48.0549 40.2332 48.0833 40.0205 48.1544C39.8077 48.2254 39.611 48.3377 39.4417 48.4848C39.2723 48.6318 39.1335 48.8108 39.0333 49.0115C38.9332 49.2122 38.8735 49.4307 38.8577 49.6544V49.6441Z" fill="#CC2C2C"/>
<path d="M75.9577 68.5648C76.4211 68.5238 76.8493 68.3007 77.1485 67.9444C77.4477 67.5882 77.5935 67.1278 77.5539 66.6643C77.5539 66.6643 75.7486 53.7186 75.4836 49.3751C74.9929 41.5762 70.2291 35.3197 62.7863 34.1811C60.1695 33.7794 55.416 33.4772 52.9317 33.4751C49.5403 33.5339 46.1543 33.7681 42.7871 34.1769C39.2963 34.6548 36.0991 36.3881 33.7937 39.0525C31.3714 41.8495 30.2886 45.4249 30.0671 49.3834C29.8187 53.731 28.1728 66.6829 28.1728 66.6829C28.1451 66.9075 28.1622 67.1353 28.2233 67.3531C28.2843 67.571 28.388 67.7745 28.5284 67.952C28.6688 68.1294 28.843 68.2772 29.041 68.3867C29.2389 68.4963 29.4567 68.5654 29.6816 68.5901C29.9065 68.6147 30.134 68.5945 30.351 68.5305C30.568 68.4665 30.7702 68.36 30.9457 68.2173C31.1212 68.0745 31.2666 67.8983 31.3735 67.6989C31.4803 67.4994 31.5465 67.2808 31.5681 67.0556C31.5681 67.0556 33.2388 53.9629 33.4769 49.5718C33.8165 43.3484 37.4995 38.3465 43.2529 37.564C46.4641 37.1739 49.6933 36.9501 52.9275 36.8932C55.2421 36.8932 59.8361 37.1872 62.2667 37.5598C64.939 37.9643 67.3823 39.3004 69.165 41.3319C71.0614 43.5099 71.8833 46.4353 72.0634 49.5821C72.3263 53.9795 74.1606 67.0742 74.1606 67.0742C74.227 67.499 74.4463 67.8849 74.7772 68.1594C75.1082 68.4339 75.5279 68.5781 75.9577 68.5648Z" fill="#CC2C2C"/>
<path d="M64.8546 48.0604C64.6297 48.0759 64.4101 48.1357 64.2085 48.2364C64.0068 48.3371 63.8271 48.4768 63.6797 48.6473C63.5323 48.8178 63.4201 49.0158 63.3495 49.2299C63.279 49.444 63.2515 49.6699 63.2687 49.8947L64.4695 66.9913C64.4994 67.4225 64.6916 67.8263 65.0074 68.1214C65.3232 68.4164 65.7391 68.5808 66.1713 68.5813H66.2935C66.7452 68.549 67.1656 68.3388 67.4625 67.9968C67.7594 67.6549 67.9086 67.2092 67.8773 66.7574L66.6765 49.6587C66.662 49.434 66.6034 49.2144 66.5039 49.0125C66.4045 48.8105 66.2662 48.6302 66.097 48.4817C65.9278 48.3333 65.7309 48.2196 65.5177 48.1473C65.3046 48.075 65.0792 48.0455 64.8546 48.0604Z" fill="#CC2C2C"/>
<path d="M63.6911 84.0299L71.9061 76.0219C72.1342 75.7995 72.2955 75.5176 72.3718 75.2083C72.4482 74.899 72.4365 74.5745 72.338 74.2715C72.2396 73.9685 72.0584 73.699 71.8149 73.4936C71.5714 73.2881 71.2752 73.1549 70.96 73.109L59.6084 71.4527L54.532 61.1736C54.3911 60.8876 54.1728 60.6468 53.9021 60.4784C53.6313 60.31 53.3188 60.2207 53 60.2207C52.6811 60.2207 52.3686 60.31 52.0979 60.4784C51.8271 60.6468 51.6089 60.8876 51.468 61.1736L46.3916 71.4589L35.04 73.1152C34.7248 73.1611 34.4286 73.2944 34.1851 73.4998C33.9416 73.7052 33.7604 73.9747 33.6619 74.2777C33.5635 74.5807 33.5518 74.9052 33.6281 75.2145C33.7045 75.5239 33.8658 75.8057 34.0939 76.0281L42.3089 84.0361L40.3711 95.3338C40.3162 95.6488 40.3509 95.9728 40.4711 96.2691C40.5914 96.5654 40.7924 96.8219 41.0512 97.0096C41.3101 97.1973 41.6164 97.3085 41.9354 97.3307C42.2544 97.3528 42.5731 97.285 42.8555 97.1349L53 91.7977L63.1445 97.1349C63.3899 97.2634 63.6626 97.3309 63.9395 97.3316C64.1882 97.3313 64.4339 97.2766 64.6593 97.1716C64.8847 97.0665 65.0846 96.9136 65.2448 96.7234C65.4051 96.5332 65.5219 96.3103 65.5871 96.0703C65.6524 95.8303 65.6645 95.5789 65.6227 95.3338L63.6911 84.0299ZM52.205 88.3568C50.2216 89.3671 44.3212 92.4974 44.3212 92.4974L45.8264 83.7172C45.8732 83.4444 45.853 83.1643 45.7675 82.9011C45.682 82.6378 45.5338 82.3992 45.3357 82.2059L38.9571 75.995L47.7725 74.7135C48.0463 74.6735 48.3064 74.5676 48.5303 74.405C48.7542 74.2424 48.9354 74.0278 49.0581 73.7797L52.9917 65.7904L56.9253 73.7797C57.048 74.0278 57.2292 74.2424 57.4531 74.405C57.677 74.5676 57.9371 74.6735 58.211 74.7135L67.0264 75.995L60.6477 82.2059C60.4496 82.3992 60.3014 82.6378 60.2159 82.9011C60.1305 83.1643 60.1103 83.4444 60.1571 83.7172L61.6622 92.4974C61.6622 92.4974 55.7618 89.363 53.7784 88.3568C53.5367 88.2264 53.2664 88.158 52.9917 88.158C52.717 88.158 52.4467 88.2264 52.205 88.3568Z" fill="#CC2C2C"/>
<path d="M99.9195 78.3014L91.6196 77.0944L87.9075 69.575C87.7669 69.2889 87.5489 69.0479 87.2783 68.8794C87.0077 68.7109 86.6953 68.6216 86.3765 68.6216C86.0577 68.6216 85.7453 68.7109 85.4747 68.8794C85.2041 69.0479 84.9862 69.2889 84.8455 69.575L81.1335 77.0944L72.8336 78.3014C72.5183 78.3473 72.2222 78.4806 71.9786 78.686C71.7351 78.8914 71.5539 79.1609 71.4555 79.4639C71.3571 79.7669 71.3454 80.0914 71.4217 80.4007C71.498 80.7101 71.6594 80.9919 71.8874 81.2143L77.8914 87.0691L76.4732 95.3338C76.4183 95.6488 76.453 95.9729 76.5732 96.2692C76.6935 96.5654 76.8945 96.822 77.1533 97.0097C77.4122 97.1973 77.7185 97.3086 78.0375 97.3307C78.3565 97.3529 78.6752 97.2851 78.9576 97.135L86.3796 93.2325L93.8038 97.135C94.0491 97.2635 94.3218 97.3309 94.5988 97.3317C94.8475 97.3313 95.0931 97.2767 95.3186 97.1717C95.544 97.0666 95.7438 96.9136 95.9041 96.7234C96.0643 96.5332 96.1811 96.3103 96.2464 96.0703C96.3117 95.8303 96.3238 95.579 96.2819 95.3338L94.8638 87.0691L100.868 81.2143C101.096 80.9919 101.257 80.7101 101.333 80.4007C101.41 80.0914 101.398 79.7669 101.3 79.4639C101.201 79.1609 101.02 78.8914 100.776 78.686C100.533 78.4806 100.237 78.3473 99.9215 78.3014H99.9195ZM85.5826 89.7916C84.2803 90.4458 80.4254 92.5016 80.4254 92.5016L81.4109 86.7607C81.4577 86.4879 81.4375 86.2078 81.352 85.9445C81.2665 85.6812 81.1183 85.4426 80.9202 85.2493L76.7485 81.1833L82.5123 80.3551C82.7865 80.3154 83.0469 80.2095 83.271 80.0464C83.495 79.8833 83.6759 79.6681 83.798 79.4193L86.3755 74.198L88.953 79.4193C89.0759 79.6679 89.2572 79.883 89.4815 80.046C89.7058 80.209 89.9664 80.3151 90.2408 80.3551L96.0024 81.1833L91.8328 85.2493C91.6344 85.4424 91.486 85.681 91.4005 85.9443C91.315 86.2076 91.295 86.4879 91.3422 86.7607L92.3359 92.5016C92.3359 92.5016 88.4831 90.4458 87.1808 89.7916C86.9352 89.6593 86.6607 89.5901 86.3817 89.5901C86.1027 89.5901 85.8282 89.6593 85.5826 89.7916Z" fill="#CC2C2C"/>
<path d="M33.1664 78.3014L24.8665 77.0944L21.1545 69.575C21.0138 69.2889 20.7959 69.0479 20.5253 68.8794C20.2547 68.7109 19.9423 68.6216 19.6235 68.6216C19.3047 68.6216 18.9923 68.7109 18.7217 68.8794C18.4511 69.0479 18.2331 69.2889 18.0925 69.575L14.3804 77.0944L6.08052 78.3014C5.76526 78.3473 5.46912 78.4806 5.2256 78.686C4.98207 78.8914 4.80086 79.1609 4.70244 79.4639C4.60402 79.7669 4.59231 80.0914 4.66864 80.4007C4.74497 80.7101 4.9063 80.9919 5.13439 81.2143L11.1383 87.0691L9.73049 95.3338C9.67564 95.6488 9.71031 95.9729 9.83055 96.2692C9.95079 96.5654 10.1518 96.822 10.4106 97.0097C10.6695 97.1973 10.9758 97.3086 11.2948 97.3307C11.6138 97.3529 11.9325 97.2851 12.2149 97.135L19.639 93.2325L27.0611 97.135C27.3064 97.2635 27.5791 97.3309 27.8561 97.3317C28.1048 97.3313 28.3504 97.2767 28.5759 97.1717C28.8013 97.0666 29.0011 96.9136 29.1614 96.7234C29.3216 96.5332 29.4384 96.3103 29.5037 96.0703C29.569 95.8303 29.5811 95.579 29.5392 95.3338L28.1211 87.0691L34.125 81.2143C34.3531 80.9919 34.5144 80.7101 34.5907 80.4007C34.6671 80.0914 34.6554 79.7669 34.5569 79.4639C34.4585 79.1609 34.2773 78.8914 34.0338 78.686C33.7902 78.4806 33.4941 78.3473 33.1788 78.3014H33.1664ZM18.8399 89.7916L13.6744 92.5016L14.6578 86.7607C14.705 86.4879 14.685 86.2076 14.5995 85.9443C14.514 85.681 14.3656 85.4424 14.1672 85.2493L9.99756 81.1833L15.7592 80.3551C16.0336 80.3151 16.2942 80.209 16.5185 80.046C16.7428 79.883 16.9241 79.6679 17.047 79.4193L19.6245 74.198L22.202 79.4193C22.3241 79.6681 22.505 79.8833 22.729 80.0464C22.9531 80.2095 23.2135 80.3154 23.4877 80.3551L29.2515 81.1833L25.0798 85.2493C24.8817 85.4426 24.7335 85.6812 24.648 85.9445C24.5625 86.2078 24.5423 86.4879 24.5891 86.7607L25.5746 92.5016L20.4174 89.7916C20.18 89.6463 19.907 89.5694 19.6286 89.5694C19.3503 89.5694 19.0773 89.6463 18.8399 89.7916Z" fill="#CC2C2C"/>
</svg>
